<svg xmlns="http://www.w3.org/2000/svg" width="20" height="19.98" viewBox="0 0 20 19.98">
  <g id="Group_97" data-name="Group 97" transform="translate(15 162.43)">
    <g id="Group_89" data-name="Group 89" transform="translate(-15 -162.43)">
      <path id="Path_72" data-name="Path 72" d="M-6.3-137.53a.961.961,0,0,1-.7-.9v-5.3a7.26,7.26,0,0,1-3-5.7c0-4.4,4.5-8,10-8s10,3.6,10,8c0,5.1-5.9,9-12.3,7.8l-2.9,3.8A.947.947,0,0,1-6.3-137.53ZM0-155.43c-4.4,0-8,2.7-8,6a5.243,5.243,0,0,0,2.6,4.4,1.234,1.234,0,0,1,.4.8v2.8l1.5-1.9a.951.951,0,0,1,1-.4c5.3,1.3,10.5-1.7,10.5-5.7C8-152.73,4.4-155.43,0-155.43Z" transform="translate(10 157.43)" fill="#1a3e5f"/>
    </g>
    <g id="Group_90" data-name="Group 90" transform="translate(-10.333 -155.398)">
      <path id="Path_73" data-name="Path 73" d="M-3.722-148.1h-.889c-.533,0-.889-.466-.889-1.165s.356-1.165.889-1.165h.889c.533,0,.889.466.889,1.165A1.052,1.052,0,0,1-3.722-148.1Z" transform="translate(5.5 150.43)" fill="#1a3e5f"/>
    </g>
    <g id="Group_91" data-name="Group 91" transform="translate(-6.333 -155.398)">
      <path id="Path_74" data-name="Path 74" d="M.278-148.1H-.611c-.533,0-.889-.466-.889-1.165s.356-1.165.889-1.165H.278c.533,0,.889.466.889,1.165A1.052,1.052,0,0,1,.278-148.1Z" transform="translate(1.5 150.43)" fill="#1a3e5f"/>
    </g>
    <g id="Group_92" data-name="Group 92" transform="translate(-2.333 -155.398)">
      <path id="Path_75" data-name="Path 75" d="M4.278-148.1H3.389c-.533,0-.889-.466-.889-1.165s.356-1.165.889-1.165h.889c.533,0,.889.466.889,1.165A1.052,1.052,0,0,1,4.278-148.1Z" transform="translate(-2.5 150.43)" fill="#1a3e5f"/>
    </g>
  </g>
</svg>
